<?xml version="1.0" encoding="UTF-8"?>
<svg width="62px" height="62px" viewBox="0 0 62 62" version="1.1" xmlns="http://www.w3.org/2000/svg" xmlns:xlink="http://www.w3.org/1999/xlink">
    <!-- Generator: Sketch 52.6 (67491) - http://www.bohemiancoding.com/sketch -->
    <title>facebook_icon</title>
    <desc>Created with Sketch.</desc>
    <g id="Page-1" stroke="none" stroke-width="1" fill="none" fill-rule="evenodd">
        <g id="Desktop-HD" transform="translate(-443.000000, -2520.000000)">
            <g id="footer" transform="translate(0.000000, 2391.000000)">
                <g id="facebook_icon" transform="translate(444.000000, 130.000000)">
                    <g>
                        <path d="M40.0263158,16.6850113 L40.0263158,10.2876641 C39.8002383,10.2876641 39.5741003,10.287224 39.3480228,10.287727 C38.8036457,10.2889845 38.259208,10.2863438 37.7147703,10.2877899 C37.050819,10.2895503 36.3869887,10.2848977 35.7229769,10.2878527 C35.1379954,10.2904934 34.5528323,10.281754 33.9679112,10.2880414 C33.084902,10.2975352 32.246733,10.3426153 31.3998502,10.6259848 C30.5833449,10.8992316 29.8169447,11.3776338 29.1640068,11.9514145 C28.78592,12.2836364 28.4359719,12.6394358 28.1190036,13.0349711 C27.990655,13.1992587 27.8710808,13.3700852 27.7594339,13.5467589 C27.4243115,14.0768427 27.1595661,14.6598658 26.9384507,15.2779722 C26.8887693,15.4171105 26.8399351,15.5566261 26.7934004,15.6968334 C26.4524688,16.7231753 26.4412133,17.8435127 26.4412133,18.9220394 C26.4412133,19.0570911 26.4412133,19.1963552 26.4412133,19.3388258 C26.4412133,21.4755084 26.4412133,24.324104 26.4412133,24.324104 L20.5714286,24.324104 L20.5714286,31.3659014 L26.229417,31.3659014 L26.3807001,31.3659014 L26.3807001,49.0332681 L33.0976703,49.0332681 L33.0976703,31.2087184 L39.1942587,31.2941631 L40.0162101,24.3702529 L33.1278059,24.3555406 L33.1278059,19.0113194 C33.1278059,19.0113194 33.1126776,16.7321662 34.9734598,16.7007296 L40.0263158,16.6850113 Z" id="f" fill="#FFFFFF"></path>
                        <circle id="Oval" stroke="#FFFFFF" stroke-width="2" cx="30" cy="30" r="30"></circle>
                    </g>
                </g>
            </g>
        </g>
    </g>
</svg>