<?xml version="1.0" encoding="UTF-8"?>
<svg width="62px" height="62px" viewBox="0 0 62 62" version="1.1" xmlns="http://www.w3.org/2000/svg" xmlns:xlink="http://www.w3.org/1999/xlink">
    <!-- Generator: Sketch 52.6 (67491) - http://www.bohemiancoding.com/sketch -->
    <title>twitter_icon</title>
    <desc>Created with Sketch.</desc>
    <g id="Page-1" stroke="none" stroke-width="1" fill="none" fill-rule="evenodd">
        <g id="Desktop-HD" transform="translate(-554.000000, -2520.000000)">
            <g id="footer" transform="translate(0.000000, 2391.000000)">
                <g id="twitter_icon" transform="translate(555.000000, 130.000000)">
                    <g>
                        <path d="M43.5875953,20.7206687 C43.5875953,20.7206687 46.6647937,18.0978124 46.5673042,16.9273528 C46.5673042,16.9273528 43.0167356,18.5066983 42.2369365,18.5772122 C42.2369365,18.5772122 41.9900293,18.3256219 41.5858773,17.9948219 C41.451121,17.8845552 41.2989579,17.7654743 41.1324839,17.6440271 C40.8242442,17.4160993 40.4997076,17.2202339 40.1627293,17.0543015 C39.9942693,16.9713649 39.8227719,16.8958227 39.6488796,16.8271427 C38.516915,16.3247904 37.2767715,16.201746 36.0594671,16.3366215 C35.8855164,16.3559064 35.7121499,16.3804561 35.5395426,16.4098566 C33.5205346,16.7299494 31.7938783,17.9708637 30.7072998,19.6627829 C30.6097519,19.8171208 30.5193302,19.9755404 30.436911,20.1379827 C30.2723062,20.4628671 30.1396527,20.803842 30.0463689,21.1595467 C30.0097446,21.2908729 29.9696741,21.443791 29.9318815,21.6070614 C29.8940306,21.7703319 29.8583409,21.9439546 29.8304784,22.1166899 C29.7190869,22.8076905 29.8304784,25.0498192 29.8304784,25.0498192 C29.8304784,25.0498192 20.8494706,25.3318748 15.0848566,17.7734603 C15.0848566,17.7734603 12.2444018,23.2166356 17.1456292,27.0240306 C17.1456292,27.0240306 16.1488882,27.4752722 14.2662136,26.3471683 C14.2662136,26.3471683 13.3304546,30.4929353 19.4013223,33.3414124 L16.4495343,33.3414124 C16.4495343,33.3414124 17.4799206,37.9384802 22.9660849,38.3615044 C22.9660849,38.3615044 20.3762172,41.8868438 12.8571429,41.3509501 C12.8571429,41.3509501 19.6411032,46.1280886 28.3810451,43.9109828 C28.5370633,43.8713484 28.6937825,43.8295251 28.8510858,43.7854539 C30.2343969,43.3533197 31.6268202,42.8457026 32.8914967,42.1649359 C33.0018368,42.1070223 33.1122353,42.0476888 33.2227507,41.9869948 C33.5543551,41.8052678 33.8873031,41.6117687 34.2215361,41.4063201 C34.2215361,41.4063201 43.4108993,36.363808 44.1627191,23.3348292 C44.1627191,23.3348292 46.0939924,22.1871446 47.3331429,19.9873716 C47.3331429,19.9874308 43.8521429,20.8052617 43.5875953,20.7206687 Z" id="twitter_bird" fill="#FFFFFF"></path>
                        <circle id="Oval" stroke="#FFFFFF" stroke-width="2" cx="30" cy="30" r="30"></circle>
                    </g>
                </g>
            </g>
        </g>
    </g>
</svg>