<?xml version="1.0" encoding="UTF-8"?>
<svg width="62px" height="62px" viewBox="0 0 62 62" version="1.1" xmlns="http://www.w3.org/2000/svg" xmlns:xlink="http://www.w3.org/1999/xlink">
    <!-- Generator: Sketch 52.6 (67491) - http://www.bohemiancoding.com/sketch -->
    <title>youtube_icon</title>
    <desc>Created with Sketch.</desc>
    <g id="Page-1" stroke="none" stroke-width="1" fill="none" fill-rule="evenodd">
        <g id="Desktop-HD" transform="translate(-776.000000, -2520.000000)">
            <g id="footer" transform="translate(0.000000, 2391.000000)">
                <g id="youtube_icon" transform="translate(777.000000, 130.000000)">
                    <g>
                        <circle id="Oval" stroke="#FFFFFF" stroke-width="2" cx="30" cy="30" r="30"></circle>
                        <path d="M37.4075301,16.3966206 C33.6344423,16.283616 29.8594686,16.2569683 26.0855354,16.3166776 C15.401287,16.5234449 10.9178149,16.356616 10.3796291,24.7139297 C10.2634861,28.2496043 10.2550322,31.7768813 10.3544626,35.3114319 C10.887576,44.4238066 13.7624737,44.2563164 26.0856005,44.5404479 C29.5270368,44.5949334 32.9693186,44.577543 36.4103648,44.4883428 C45.0787577,44.2456045 49.1104686,44.4599098 49.645728,35.3065388 C49.7448983,31.7737735 49.7365095,28.2479512 49.6203664,24.7140619 C49.0842617,16.3228932 44.435484,16.600214 37.4075301,16.3966206 Z M26.5855139,36 C26.5650368,32.2863192 26.5668867,28.5704348 26.5910638,24.8571429 C29.9904653,26.6895823 33.4277592,28.5765918 36.8571429,30.4301593 C33.4306936,32.2776994 29.9915498,34.163672 26.5855139,36 Z" id="Shape" fill="#FFFFFF" fill-rule="nonzero"></path>
                    </g>
                </g>
            </g>
        </g>
    </g>
</svg>